# xmcd
#
# Track frame offsets:
#	183
#	9448
#	21430
#	33163
#	44643
#	55110
#	65573
#	75755
#	86178
#	99655
#	111943
#	124015
#	134050
#	143855
#	158865
#	169205
#	179345
#	189733
#
# Disc length: 2701
#
# Revision: 2
# Processed by: cddbd v1.5.1PL0 Copyright (c) Steve Scherf et al.
# Submitted via: audiograbber 1.83.01
# Normalized: r1:DSETVAR1
#
DISCID=fb0a8b12
DTITLE=Various Artist - Country Gold Vol. 2 - CD2
DYEAR=2004
DGENRE=Country
TTITLE0=Chet Atkins - Yakety Axe
TTITLE1=Porter Wagoner - I've Enjoyed As Much Of This As I Can Stand
TTITLE2=Skeeter Davis - What Does It Take (To Keep A Man Like You Satifsied)
TTITLE3=Roger Miller - Footprints In The Snow
TTITLE4=Connie Smith - Once A Day
TTITLE5=Hank Snow - Spanish Fire Ball
TTITLE6=Bobby Bare - Charleston Railroad Tavern
TTITLE7=Charly Pride - Does My Ring Hurt Your Finger
TTITLE8=Dottie West - Mommy, Can I Still Call Him Daddy
TTITLE9=Jim Ed Brown - Bottle, Bottle
TTITLE10=Stu Phillips - The Last Thing On My Mind
TTITLE11=Waylon Jennings and The Waylors - Ruby, Don't Take Your Love To Town
TTITLE12=Jerry Reed - Are You From Dixie (Cause I'm From Dixie Too)
TTITLE13=Bobby Bare - (Margie's At) Lincoln Park Inn
TTITLE14=Porter Wagoner - I Cried Again
TTITLE15=Don Gibson - Sweet Dreams
TTITLE16=Skeeter Davis - I Walk The Line
TTITLE17=Hank Locklin - High Noon (Do Not Forsake Me)
EXTD=
EXTT0=
EXTT1=
EXTT2=
EXTT3=
EXTT4=
EXTT5=
EXTT6=
EXTT7=
EXTT8=
EXTT9=
EXTT10=
EXTT11=
EXTT12=
EXTT13=
EXTT14=
EXTT15=
EXTT16=
EXTT17=
PLAYORDER=
